<?xml version="1.0" encoding="UTF-8" standalone="no"?><!DOCTYPE svg PUBLIC "-//W3C//DTD SVG 1.1//EN" "http://www.w3.org/Graphics/SVG/1.1/DTD/svg11.dtd"><svg width="100%" height="100%" viewBox="0 0 2250 2250" version="1.1" xmlns="http://www.w3.org/2000/svg" xmlns:xlink="http://www.w3.org/1999/xlink" xml:space="preserve" xmlns:serif="http://www.serif.com/" style="fill-rule:evenodd;clip-rule:evenodd;stroke-linejoin:round;stroke-miterlimit:2;"><path d="M1125,83.333c574.911,0 1041.667,466.755 1041.667,1041.667c0,574.911 -466.755,1041.667 -1041.667,1041.667c-574.911,0 -1041.667,-466.755 -1041.667,-1041.667c0,-574.911 466.755,-1041.667 1041.667,-1041.667Zm-928.098,689.624c-33.209,87.4 -54.419,180.69 -61.614,277.855l291.857,-291.857c6.553,7.816 13.543,15.254 20.931,22.277l-315.118,315.118c-0.27,9.517 -0.406,19.068 -0.406,28.65c0,171.305 43.496,332.532 120.037,473.228c100.675,-36.293 113.699,-116.799 114.684,-124.124l0,-47.199c-20.096,28.397 -53.277,58.429 -107.932,77.273c-7.971,2.748 -16.673,-1.492 -19.421,-9.463c-2.748,-7.971 1.492,-16.673 9.463,-19.421c103.607,-35.721 116.896,-117.853 117.891,-125.255l0,-42.643c-20.096,28.397 -53.277,58.429 -107.932,77.273c-7.971,2.748 -16.673,-1.492 -19.421,-9.463c-2.748,-7.971 1.492,-16.673 9.463,-19.421c103.607,-35.721 116.896,-117.853 117.891,-125.255l0,-42.642c-20.096,28.397 -53.277,58.429 -107.932,77.273c-7.971,2.748 -16.673,-1.492 -19.421,-9.463c-2.748,-7.971 1.492,-16.673 9.463,-19.421c103.607,-35.721 116.896,-117.853 117.891,-125.255l0,-42.643c-20.096,28.397 -53.277,58.429 -107.932,77.273c-7.971,2.748 -16.673,-1.492 -19.421,-9.463c-2.748,-7.971 1.492,-16.673 9.463,-19.421c108.547,-37.425 117.958,-125.791 117.958,-125.791c0.687,-7.287 6.481,-13.081 13.769,-13.769c0.959,-0.09 1.923,-0.09 2.882,0c7.287,0.687 13.081,6.481 13.769,13.769c0,0 3.352,31.478 29.136,64.815l103.12,-221.142c9.402,3.915 19.073,7.311 28.977,10.152l-109.496,234.816c16.409,14.198 37.958,27.401 66.233,37.149c7.971,2.748 12.211,11.45 9.463,19.421c-2.748,7.971 -11.45,12.211 -19.421,9.463c-54.663,-18.845 -87.848,-48.879 -107.945,-77.277l0,42.646c0.995,7.402 14.285,89.533 117.903,125.255c7.971,2.748 12.211,11.45 9.463,19.421c-2.748,7.971 -11.45,12.211 -19.421,9.463c-54.663,-18.845 -87.848,-48.879 -107.945,-77.277l0,42.645c0.995,7.402 14.285,89.533 117.903,125.255c7.971,2.748 12.211,11.45 9.463,19.421c-2.748,7.971 -11.45,12.211 -19.421,9.463c-54.663,-18.845 -87.848,-48.879 -107.945,-77.277l0,42.646c0.995,7.402 14.285,89.533 117.903,125.255c7.971,2.748 12.211,11.45 9.463,19.421c-2.748,7.971 -11.45,12.211 -19.421,9.463c-54.663,-18.845 -87.848,-48.879 -107.945,-77.277l0,47.202c0.995,7.402 14.285,89.533 117.903,125.255c7.971,2.748 12.211,11.45 9.463,19.421c-2.748,7.971 -11.45,12.211 -19.421,9.463c-54.663,-18.845 -87.848,-48.879 -107.945,-77.277l0,61.93c0.995,7.402 14.284,89.533 117.891,125.255c7.971,2.748 12.211,11.451 9.463,19.421c-2.748,7.971 -11.451,12.211 -19.421,9.463c-54.655,-18.844 -87.836,-48.877 -107.932,-77.273l0,110.364c19.241,20.713 39.355,40.603 60.283,59.613l127.827,0l-0,-782.994l361.906,-356.131l0,-2.59l2.632,0l174.526,-171.741l174.526,171.741l2.632,-0l0,2.59l19.343,19.035c134.345,-51.981 150.882,-161.666 152.001,-170.46l0,-76.553c-25.209,41.816 -70.95,89.528 -153.615,118.029c-7.971,2.748 -16.673,-1.492 -19.421,-9.463c-2.748,-7.971 1.492,-16.673 9.463,-19.421c150.928,-52.037 163.641,-175.253 163.641,-175.253c0.687,-7.287 6.481,-13.081 13.769,-13.769c0.959,-0.09 1.923,-0.09 2.882,-0c7.287,0.687 13.081,6.481 13.769,13.769c0,0 12.713,123.216 163.657,175.253c7.971,2.748 12.211,11.45 9.463,19.421c-2.748,7.971 -11.45,12.211 -19.421,9.463c-82.676,-28.502 -128.421,-76.216 -153.632,-118.033l0,76.556c1.15,9.04 18.596,124.704 163.59,174.69c7.971,2.748 12.211,11.45 9.463,19.421c-2.748,7.971 -11.45,12.211 -19.421,9.463c-82.676,-28.502 -128.421,-76.216 -153.632,-118.033l-0,76.555c1.15,9.04 18.596,124.704 163.59,174.69c7.971,2.748 12.211,11.45 9.463,19.421c-2.748,7.971 -11.45,12.211 -19.421,9.463c-82.676,-28.502 -128.421,-76.216 -153.632,-118.033l-0,76.556c0.365,2.87 2.372,16.486 9.582,35.335l150.427,148.027l0,782.994l127.827,0c24.024,-21.821 46.974,-44.803 68.763,-68.857l0,-77.327c-18.428,24.522 -47.869,49.833 -94.813,66.018c-7.971,2.748 -16.673,-1.492 -19.421,-9.463c-2.748,-7.971 1.492,-16.673 9.463,-19.421c91.762,-31.637 103.827,-104.186 104.772,-111.061l0,-50.661c-18.428,24.522 -47.869,49.833 -94.813,66.018c-7.971,2.748 -16.673,-1.492 -19.421,-9.463c-2.748,-7.971 1.492,-16.673 9.463,-19.421c91.762,-31.637 103.827,-104.186 104.772,-111.061l0,-37.441c-18.428,24.522 -47.869,49.833 -94.813,66.018c-7.971,2.748 -16.673,-1.492 -19.421,-9.463c-2.748,-7.971 1.492,-16.673 9.463,-19.421c91.762,-31.637 103.827,-104.186 104.772,-111.061l0,-33.351c-18.428,24.522 -47.869,49.833 -94.813,66.018c-7.971,2.748 -16.673,-1.492 -19.421,-9.463c-2.748,-7.971 1.492,-16.673 9.463,-19.421c91.762,-31.637 103.827,-104.186 104.772,-111.061l0,-33.35c-18.428,24.522 -47.869,49.833 -94.813,66.018c-7.971,2.748 -16.673,-1.492 -19.421,-9.463c-2.748,-7.971 1.492,-16.673 9.463,-19.421c91.762,-31.637 103.827,-104.186 104.772,-111.061l0,-33.351c-18.428,24.522 -47.869,49.833 -94.813,66.018c-7.971,2.748 -16.673,-1.492 -19.421,-9.463c-2.748,-7.971 1.492,-16.673 9.463,-19.421c96.377,-33.229 104.839,-111.587 104.839,-111.587c0.687,-7.287 6.481,-13.081 13.769,-13.769c0.959,-0.09 1.923,-0.09 2.882,0c7.287,0.687 13.081,6.481 13.769,13.769c0,0 8.463,78.358 104.849,111.587c7.971,2.748 12.211,11.45 9.463,19.421c-2.748,7.971 -11.45,12.211 -19.421,9.463c-46.951,-16.186 -76.395,-41.498 -94.825,-66.021l0,33.354c0.945,6.875 13.011,79.424 104.783,111.061c7.971,2.748 12.211,11.45 9.463,19.421c-2.748,7.971 -11.45,12.211 -19.421,9.463c-46.951,-16.186 -76.395,-41.498 -94.825,-66.021l0,33.352c0.945,6.875 13.011,79.424 104.783,111.061c7.971,2.748 12.211,11.45 9.463,19.421c-2.748,7.971 -11.45,12.211 -19.421,9.463c-46.951,-16.186 -76.395,-41.498 -94.825,-66.021l0,33.354c0.945,6.875 13.011,79.424 104.783,111.061c7.971,2.748 12.211,11.45 9.463,19.421c-2.748,7.971 -11.45,12.211 -19.421,9.463c-46.951,-16.186 -76.395,-41.498 -94.825,-66.021l0,37.443c0.903,6.57 11.963,73.12 93.041,106.622c81.29,-140.232 129.239,-302.153 132.965,-474.883l-398.561,-145.064l9.959,-28.889l388.78,141.504c-2.005,-189.914 -57.466,-367.11 -152.036,-517.243c-1.676,0.633 -3.492,0.979 -5.388,0.979l-213.925,0l10.533,-30.553l189.408,0c-93.612,-137.519 -220.857,-250.34 -369.864,-326.592l-680.052,247.519c-4.569,1.663 -9.421,1.006 -13.263,-1.367c-2.151,-5.392 -4.472,-10.698 -6.956,-15.912c0.997,-5.081 4.553,-9.533 9.769,-11.431l652.198,-237.381c-125.73,-57.651 -265.548,-89.797 -412.816,-89.797c-5.503,0 -10.995,0.045 -16.477,0.134l-274.941,274.941c-6.788,-7.602 -14.002,-14.816 -21.604,-21.604l251.598,-251.598c-83.196,5.09 -163.635,20.45 -240.064,44.825l-72.263,154.968c-1.583,3.394 -4.257,5.934 -7.411,7.396c-6.75,-3.06 -13.649,-5.849 -20.683,-8.353c-1.443,-3.74 -1.422,-8.039 0.404,-11.956l59.827,-128.299c-46.74,17.158 -91.836,37.734 -134.984,61.424l0,63.43l-0.004,0.35c-5.055,-0.284 -10.147,-0.428 -15.272,-0.428c-5.125,0 -10.218,0.144 -15.272,0.428l-0.004,-0.35l-0,-45.942c-21.211,12.646 -41.912,26.06 -62.064,40.205l4.282,9.182c0.928,1.991 1.39,4.081 1.43,6.146c-9.429,2.605 -18.652,5.713 -27.636,9.291c-0.565,-0.778 -1.063,-1.621 -1.485,-2.525l-1.781,-3.82c-53.699,40.25 -103.191,85.813 -147.694,135.906c0.549,2.674 0.389,5.528 -0.612,8.28c-2.365,6.497 -8.69,10.417 -15.259,10.028c-22.401,26.482 -43.441,54.151 -63.011,82.9l61.07,0c-0.438,6.266 -0.661,12.592 -0.661,18.968c0,3.881 0.082,7.743 0.246,11.584l-80.643,0c-27.297,43.446 -51.321,89.152 -71.725,136.772l166.769,-60.699c3.347,9.69 7.233,19.13 11.623,28.283l-193.793,70.535Zm420.945,195.674l0,-113.531l0.004,-0.35c5.055,0.284 10.147,0.428 15.272,0.428c5.125,0 10.218,-0.144 15.272,-0.428l0.004,0.35l0,83.465l-30.553,30.065Zm376.575,-370.566l-92.847,0c0.163,-3.841 0.246,-7.703 0.246,-11.584c0,-6.377 -0.223,-12.702 -0.661,-18.968l124.31,0l-31.048,30.553Zm-361.299,-215.155c112.354,0 203.571,91.217 203.571,203.571c0,112.354 -91.217,203.571 -203.571,203.571c-112.354,0 -203.571,-91.217 -203.571,-203.571c0,-112.354 91.217,-203.571 203.571,-203.571Zm0,30.553c-95.491,0 -173.018,77.527 -173.018,173.018c0,95.491 77.527,173.018 173.018,173.018c95.491,0 173.018,-77.527 173.018,-173.018c0,-95.491 -77.527,-173.018 -173.018,-173.018Zm1294.426,1295.19c14.316,-19.643 27.929,-39.831 40.801,-60.526c-36.847,-15.991 -61.146,-37.874 -77.145,-59.163l0,50.664c0.625,4.549 6.119,37.848 36.343,69.025Zm-36.343,46.873c5.97,-7.245 11.84,-14.575 17.607,-21.99c-6.77,-6.586 -12.596,-13.312 -17.607,-19.98l0,41.97Zm-1556.458,-30.359c10.493,13.79 21.339,27.298 32.524,40.51l0,-75.915c-8.37,11.827 -19.009,23.937 -32.524,35.405Zm1074.454,134.571l-0,-358.594l-568.406,-0l-0,358.594l568.406,0Zm-1141.405,-234.564c15.099,25.803 31.33,50.865 48.625,75.118c42.993,-37.681 50.131,-82.048 50.85,-87.396l0,-61.926c-19.038,26.901 -49.818,55.271 -99.475,74.205Zm1254.673,-632.522l-72.293,-71.139l0,933.906l72.293,0l0,-862.767Zm-574.629,-216.798l-108.646,106.912l0,267.311l108.646,-106.912l0,-267.311Zm354.316,685.914l108.646,0l0,-123.672l-108.646,0l0,123.672Zm-196.846,-518.319l-118.096,116.211l0,1.565l-1.591,0l-144.829,142.518l0,94.976l264.516,-0l0,-355.271Zm-118.096,518.319l118.096,0l0,-123.672l-118.096,0l0,123.672Zm118.096,-840.872l-118.096,116.211l0,267.311l118.096,-116.211l0,-267.311Zm239.891,142.074l74.907,73.711c45.019,-48.638 52.645,-99.525 53.392,-105.399l0,-76.551c-22.508,37.336 -61.385,79.373 -128.299,108.239Zm-200.516,535.75l264.516,-0l0,-94.976l-144.829,-142.518l-1.591,-0l0,-1.565l-118.096,-116.211l0,355.271Zm-305.491,163.047l108.646,0l0,-123.672l-108.646,0l0,123.672Zm-39.375,-540.255l-72.609,71.45l0,862.456l72.609,0l0,-933.906Zm642.29,-63.181l31.391,30.89l0,-72.394c-8.139,13.501 -18.419,27.618 -31.391,41.503Zm119.735,997.087l62.843,0l-0,-762.18l-62.843,-61.84l0,824.02Zm-873.377,-824.331l-63.159,62.151l0,762.18l63.159,0l0,-824.331Zm574.313,-293.98l-118.096,-116.211l0,267.311l118.096,116.211l0,-267.311Zm148.021,145.659l-108.646,-106.912l0,267.311l108.646,106.912l0,-267.311Zm-266.116,579.002l118.096,0l0,-123.672l-118.096,0l0,123.672Z"/></svg>